<?xml version="1.0" encoding="UTF-8"?>
<svg version="1.1" xmlns="http://www.w3.org/2000/svg" width="1152" height="648">
<path d="M0 0 C380.16 0 760.32 0 1152 0 C1152 213.84 1152 427.68 1152 648 C771.84 648 391.68 648 0 648 C0 434.16 0 220.32 0 0 Z " fill="#FEFEFE" transform="translate(0,0)"/>
<path d="M0 0 C5.85861872 0.08707339 9.72879731 0.85148469 14.58959961 4.32348633 C17.70681073 8.99930301 17.17468936 13.85030496 16.58959961 19.32348633 C14.67501106 23.07607988 13.04650079 24.06367977 9.40209961 26.13598633 C4.95589948 27.52086834 1.19651439 27.60554233 -3.41040039 27.32348633 C-3.39879883 28.32250977 -3.38719727 29.3215332 -3.37524414 30.35083008 C-3.3662207 31.64118164 -3.35719727 32.9315332 -3.34790039 34.26098633 C-3.33629883 35.54875977 -3.32469727 36.8365332 -3.31274414 38.16333008 C-3.41040039 41.32348633 -3.41040039 41.32348633 -4.41040039 42.32348633 C-6.74337472 42.3644157 -9.07745264 42.36590356 -11.41040039 42.32348633 C-11.43504677 36.5027701 -11.45323469 30.68208399 -11.46533203 24.86132812 C-11.47037306 22.87955191 -11.47720577 20.89777944 -11.48583984 18.91601562 C-11.49791554 16.07396524 -11.50363084 13.23196385 -11.50805664 10.38989258 C-11.51321793 9.49822891 -11.51837921 8.60656525 -11.5236969 7.68788147 C-11.52389216 5.56608031 -11.47250069 3.44437853 -11.41040039 1.32348633 C-9.11577906 -0.971135 -3.20276556 0.01498643 0 0 Z " fill="#030303" transform="translate(80.410400390625,62.676513671875)"/>
<path d="M0 0 C2.32891212 3.49336818 2.23551143 4.86007865 2.1953125 8.98046875 C2.18886719 10.14384766 2.18242187 11.30722656 2.17578125 12.50585938 C2.15902344 13.72080078 2.14226562 14.93574219 2.125 16.1875 C2.11597656 17.41404297 2.10695312 18.64058594 2.09765625 19.90429688 C2.07406017 22.93639295 2.04113841 25.96809938 2 29 C-0.31 29 -2.62 29 -5 29 C-5.33 28.34 -5.66 27.68 -6 27 C-6.495 27.495 -6.99 27.99 -7.5 28.5 C-10.9543309 30.57259854 -14.11520736 30.57152019 -18 30 C-20.9091534 28.73515069 -22.46015566 27.74549933 -24.3125 25.1875 C-25.24084633 22.23367076 -25.37765935 20.084218 -25 17 C-23.10953541 13.80075223 -21.65358789 12.31919409 -18.3125 10.6875 C-14.1548709 9.82459585 -10.22813509 9.8308746 -6 10 C-6.66 8.02 -7.32 6.04 -8 4 C-13.21979128 3.8200072 -17.07262981 4.02905192 -22 6 C-22.33 4.35 -22.66 2.7 -23 1 C-16.31742988 -4.48925402 -7.2380504 -4.766521 0 0 Z " fill="#080808" transform="translate(181,76)"/>
<path d="M0 0 C4.2402794 1.57047385 6.701402 3.10903991 9 7 C9.39237205 11.03881633 9.1326831 14.9310516 9 19 C2.4 19 -4.2 19 -11 19 C-9.34922098 22.75170424 -9.34922098 22.75170424 -7 26 C-1.92545485 26.3632306 3.01657457 26.02224111 8 25 C8.04254356 26.99954746 8.04080783 29.00041636 8 31 C5.40343235 33.59656765 -0.47370745 33.03759583 -3.9375 33.3125 C-8.57579837 33.22226073 -12.3291517 31.84385259 -16 29 C-19.43927341 23.6261353 -19.73674692 18.27748747 -19 12 C-17.75593792 6.92731277 -15.3492369 3.89949126 -11 1 C-7.54399474 -0.72800263 -3.78580413 -0.35691083 0 0 Z " fill="#050505" transform="translate(120,73)"/>
<path d="M0 0 C2.31 0 4.62 0 7 0 C7 8.58 7 17.16 7 26 C7.66 26 8.32 26 9 26 C9.20625 25.319375 9.4125 24.63875 9.625 23.9375 C11.4658155 20.00484871 13.52382555 16.67514294 17 14 C19.91446341 13.40243016 21.99544138 13.63738086 25 14 C24.41463247 17.66060821 22.916761 19.54535164 20.4375 22.25 C19.79683594 22.95640625 19.15617187 23.6628125 18.49609375 24.390625 C18.00238281 24.92171875 17.50867188 25.4528125 17 26 C18.80314043 31.00872342 21.58728755 35.07902022 24.5390625 39.4765625 C26 42 26 42 26 45 C21.02545455 45.87272727 21.02545455 45.87272727 18 45 C15.0989412 42.00185853 13.07663579 38.60125447 11 35 C10.01 33.35 9.02 31.7 8 30 C7.67 34.95 7.34 39.9 7 45 C4.69 45 2.38 45 0 45 C-1.53084425 43.46915575 -1.12715779 42.08796856 -1.12939453 39.95507812 C-1.13254669 39.09748901 -1.13569885 38.2398999 -1.13894653 37.35632324 C-1.1369223 36.42404907 -1.13489807 35.4917749 -1.1328125 34.53125 C-1.13376923 33.58060669 -1.13472595 32.62996338 -1.13571167 31.6505127 C-1.13639357 29.63631118 -1.13453862 27.62210748 -1.13037109 25.60791016 C-1.12502298 22.51329645 -1.13031577 19.4188279 -1.13671875 16.32421875 C-1.13605797 14.37239551 -1.13477681 12.42057236 -1.1328125 10.46875 C-1.13483673 9.53647583 -1.13686096 8.60420166 -1.13894653 7.64367676 C-1.13579437 6.78608765 -1.13264221 5.92849854 -1.12939453 5.04492188 C-1.12859894 4.28626831 -1.12780334 3.52761475 -1.12698364 2.74597168 C-1 1 -1 1 0 0 Z " fill="#040404" transform="translate(192,60)"/>
<path d="M0 0 C2.64 0 5.28 0 8 0 C8.01981934 0.65597168 8.03963867 1.31194336 8.06005859 1.98779297 C8.15512507 4.95061069 8.26487752 7.91270532 8.375 10.875 C8.4059375 11.90753906 8.436875 12.94007812 8.46875 14.00390625 C8.50742188 14.99003906 8.54609375 15.97617188 8.5859375 16.9921875 C8.6173584 17.90339355 8.6487793 18.81459961 8.68115234 19.75341797 C8.79882511 22.19931186 8.79882511 22.19931186 11 24 C15.50317123 23.64736215 15.50317123 23.64736215 19 21 C19.37004294 18.77341846 19.37004294 18.77341846 19.4140625 16.2109375 C19.45273438 15.26992187 19.49140625 14.32890625 19.53125 13.359375 C19.5621875 12.37453125 19.593125 11.3896875 19.625 10.375 C19.66367188 9.38242188 19.70234375 8.38984375 19.7421875 7.3671875 C19.8366314 4.91164615 19.92219875 2.4561159 20 0 C22.33294775 -0.04241723 24.66702567 -0.04092937 27 0 C28.85714057 1.85714057 28.13048681 4.92507049 28.1328125 7.40625 C28.13410156 8.70691406 28.13539063 10.00757812 28.13671875 11.34765625 C28.13357666 12.36883545 28.13357666 12.36883545 28.13037109 13.41064453 C28.1250224 15.49128515 28.1303168 17.57170989 28.13671875 19.65234375 C28.13542969 20.95300781 28.13414062 22.25367188 28.1328125 23.59375 C28.13168457 24.79708984 28.13055664 26.00042969 28.12939453 27.24023438 C28 30 28 30 27 31 C25.00041636 31.04080783 22.99954746 31.04254356 21 31 C20.67 30.01 20.34 29.02 20 28 C18.989375 28.66 17.97875 29.32 16.9375 30 C13.14080673 32.13995439 10.39393723 32.73232287 6 32 C3.36983839 29.8272578 1.52663106 28.05326212 0 25 C-0.084915 23.1136088 -0.107193 21.22421485 -0.09765625 19.3359375 C-0.09443359 18.21445313 -0.09121094 17.09296875 -0.08789062 15.9375 C-0.07951172 14.761875 -0.07113281 13.58625 -0.0625 12.375 C-0.05798828 11.19164063 -0.05347656 10.00828125 -0.04882812 8.7890625 C-0.03701467 5.85932493 -0.02054258 2.92968728 0 0 Z " fill="#070707" transform="translate(222,74)"/>
<path d="M0 0 C1.134375 0.020625 2.26875 0.04125 3.4375 0.0625 C3.4375 2.7025 3.4375 5.3425 3.4375 8.0625 C6.0775 8.0625 8.7175 8.0625 11.4375 8.0625 C11.48004356 10.06204746 11.47830783 12.06291636 11.4375 14.0625 C11.1075 14.3925 10.7775 14.7225 10.4375 15.0625 C8.1275 15.0625 5.8175 15.0625 3.4375 15.0625 C3.7675 20.3425 4.0975 25.6225 4.4375 31.0625 C8.91452364 32.12787205 8.91452364 32.12787205 11.4375 32.0625 C11.5625 34.9375 11.5625 34.9375 11.4375 38.0625 C9.04463116 40.45536884 8.34302906 40.38300616 5.0625 40.4375 C1.68442628 40.37232816 0.72213276 40.27597457 -2.0625 38.1875 C-4.24331187 35.09801652 -4.68504714 33.4445715 -4.66015625 29.7109375 C-4.65693359 28.86015625 -4.65371094 28.009375 -4.65039062 27.1328125 C-4.64201172 26.24335937 -4.63363281 25.35390625 -4.625 24.4375 C-4.62048828 23.5403125 -4.61597656 22.643125 -4.61132812 21.71875 C-4.59952591 19.49993352 -4.58306155 17.28124982 -4.5625 15.0625 C-6.2125 14.7325 -7.8625 14.4025 -9.5625 14.0625 C-9.5625 12.4125 -9.5625 10.7625 -9.5625 9.0625 C-7.9125 8.7325 -6.2625 8.4025 -4.5625 8.0625 C-4.583125 6.928125 -4.60375 5.79375 -4.625 4.625 C-4.54525862 0.07974138 -4.54525862 0.07974138 0 0 Z " fill="#040404" transform="translate(141.5625,65.9375)"/>
<path d="M0 0 C1.258125 -0.04125 2.51625 -0.0825 3.8125 -0.125 C4.52019531 -0.14820312 5.22789063 -0.17140625 5.95703125 -0.1953125 C8 0 8 0 11 2 C11.64 8.72 11.64 8.72 10 12 C6.72032242 13.63983879 3.62861311 13.17845638 0 13 C0 8.71 0 4.42 0 0 Z " fill="#F5F5F5" transform="translate(77,70)"/>
<path d="M0 0 C3.4375 0.875 3.4375 0.875 5.4375 3.875 C5.4375 4.865 5.4375 5.855 5.4375 6.875 C1.1475 6.875 -3.1425 6.875 -7.5625 6.875 C-6.231068 1.549272 -5.71872964 -0.20065718 0 0 Z " fill="#EFEFEF" transform="translate(116.5625,79.125)"/>
<path d="M0 0 C2.01822917 0.06510417 4.03645833 0.13020833 6.0546875 0.1953125 C6.3046875 2.5078125 6.3046875 2.5078125 6.0546875 5.1953125 C3.85433734 7.55865156 2.58878071 8.14562941 -0.6328125 8.4453125 C-2.9453125 8.1953125 -2.9453125 8.1953125 -3.9453125 7.1953125 C-4.1328125 4.7578125 -4.1328125 4.7578125 -3.9453125 2.1953125 C-1.9453125 0.1953125 -1.9453125 0.1953125 0 0 Z " fill="#F7F7F7" transform="translate(168.9453125,91.8046875)"/>
</svg>
